<?xml version="1.0" encoding="utf-8"?>
<!-- Generator: Adobe Illustrator 24.0.1, SVG Export Plug-In . SVG Version: 6.00 Build 0)  -->
<svg version="1.1" id="Layer_1" xmlns="http://www.w3.org/2000/svg" xmlns:xlink="http://www.w3.org/1999/xlink" x="0px" y="0px"
	 viewBox="0 0 2000 2000" style="enable-background:new 0 0 2000 2000;" xml:space="preserve">
<style type="text/css">
	.st0{fill:#FFFFFF;}
</style>
<g>
	<polygon class="st0" points="837.58,1376.24 1487.14,1001.22 1367.12,931.93 837.58,1237.65 	"/>
	<polygon class="st0" points="748.67,811.27 423.91,623.76 423.91,1137.3 748.67,949.8 	"/>
	<polygon class="st0" points="957.57,829.19 1073.37,762.33 837.58,626.2 837.58,898.47 868.64,880.53 	"/>
	<polygon class="st0" points="1046.5,880.53 957.57,931.87 837.58,1001.15 748.67,1052.48 423.91,1239.98 423.91,1373.8 
		748.67,1186.3 837.58,1134.96 1227.92,909.61 1278.19,880.58 1278.13,880.56 1162.29,813.68 	"/>
	<path class="st0" d="M0,0v2000h2000V0H0z M837.58,1478.93l-88.91,51.32v-241.27l-324.77,187.5L335,1527.81V469.75l88.91,51.32
		l324.77,187.5V472.19l88.91,51.33l413.64,238.81L1665,1001.22L837.58,1478.93z"/>
</g>
</svg>
