<?xml version="1.0" encoding="utf-8"?>
<!-- Generator: Adobe Illustrator 24.0.1, SVG Export Plug-In . SVG Version: 6.00 Build 0)  -->
<svg version="1.1" id="Layer_1" xmlns="http://www.w3.org/2000/svg" xmlns:xlink="http://www.w3.org/1999/xlink" x="0px" y="0px"
	 viewBox="0 0 2500 1500" style="enable-background:new 0 0 2500 1500;" xml:space="preserve">
<style type="text/css">
	.st0{fill:#FFFFFF;}
</style>
<g>
	<polygon class="st0" points="1178.37,825.28 1590.26,587.47 1514.15,543.53 1178.37,737.39 	"/>
	<path class="st0" d="M1026.91,1100.95h-13.57v25.01l13.69-0.01l2.2-0.14c7.64-1.02,14.01-7.55,14.01-14.79
		C1043.24,1105.47,1035.92,1100.95,1026.91,1100.95z"/>
	<polygon class="st0" points="1121.99,467.02 916.05,348.11 916.05,673.76 1121.99,554.86 	"/>
	<path class="st0" d="M1211.23,1096.23c-26.26,0-47.61,21.45-47.61,47.81c0,26.19,21.35,47.5,47.61,47.5
		c26.36,0,47.81-21.31,47.81-47.5C1259.04,1117.67,1237.59,1096.23,1211.23,1096.23z"/>
	<polygon class="st0" points="1254.45,478.38 1327.89,435.99 1178.37,349.66 1178.37,522.31 1198.06,510.94 	"/>
	<polygon class="st0" points="1178.37,672.28 1425.88,529.38 1457.76,510.97 1457.72,510.95 1384.27,468.55 1310.85,510.94 
		1254.45,543.49 1178.37,587.42 1121.99,619.97 916.05,738.87 916.05,823.73 1121.99,704.83 	"/>
	<path class="st0" d="M0,0v1500h2500V0H0z M859.67,250.46L916.05,283l205.94,118.9V252l56.38,32.55l262.29,151.44l262.38,151.48
		l-524.68,302.92l-56.38,32.54V769.94l-205.94,118.9l-56.38,32.55V250.46z M598.91,1043.31H565.5v153h33.41v53.23h-39.04h-45h-39.04
		v-53.23h33.41v-153h-33.41v-53.23h123.08V1043.31z M785.21,1244.87h-11.96l-97.92-93.81v91.07h-53.02v-199.35h12.07l97.71,93.6
		v-91.07h53.12V1244.87z M864.81,1244.87h-53.13v-196.83h121.64v52.92h-68.78l-0.29,24.98h69.06l0.03,52.92h-69.12L864.81,1244.87z
		 M1060.12,1244.87l-45.9-65.98h-0.87v65.98h-53.12l-0.04-13.18v-183.65h66.11c39.1,0,70.92,30.48,70.92,67.95
		c0,21.08-10.63,40.68-27.19,52.22l55.73,76.66H1060.12z M1211.23,1244.87c-55.6,0-100.84-45.15-100.84-100.62
		c0-55.85,45.28-101.27,100.95-101.27c55.71,0,101.04,45.43,101.04,101.27C1312.38,1199.73,1267,1244.87,1211.23,1244.87z
		 M1494.92,1244.87h-11.96l-97.92-93.81v91.07h-53.02v-199.35h12.07l97.71,93.6v-91.07h53.13V1244.87z M1616.34,1244.87h-53.12
		V1101.5h-46.09v-53.23h145.29v53.23h-46.09V1244.87z M1791.91,1219.42c-19.41,19.43-45.34,30.13-73.01,30.13h-1.53
		c-20.57,0-41.78-6.52-58.18-17.89l-10.41-7.22l32.36-56.37l12.64,10.74c6.07,5.16,14.77,8.12,23.88,8.12h0.97
		c22.06,0,40.7-18.89,40.7-41.26l-0.51-102.36h-21.53h-39.04v-53.23h123.08v3.83l0.76,151.97
		C1822.08,1173.85,1811.37,1199.94,1791.91,1219.42z M1996.04,1228.79c-16.84,13.38-40.14,20.75-65.59,20.75
		c-40.59,0-74.21-18.98-89.94-50.77l-5.2-10.51l49.77-35.58l7.58,13.26c7.47,13.08,21.4,20.58,38.21,20.58
		c16.77,0,30.42-6.91,30.42-15.4c0-11.45-28.03-23.53-46.57-31.52l-0.7-0.3c-25.49-11.33-63.8-28.35-63.8-73.14
		c0-43.37,36.95-76.07,85.94-76.07c37.39,0,66.54,18.32,77.98,49.01l3.75,10.06l-48.49,33.53l-6.85-14.94
		c-4.41-9.62-14.42-15.59-26.11-15.59c-13.87,0-23.19,7.68-23.19,14.85c0,5.81,11.34,10.96,30.02,18.74
		c3.08,1.29,6.29,2.62,9.58,4.03c34.57,15.18,71.34,35.14,71.34,80.66C2024.17,1193.64,2014.18,1214.37,1996.04,1228.79z"/>
</g>
</svg>
