<?xml version="1.0" encoding="utf-8"?>
<!-- Generator: Adobe Illustrator 24.0.1, SVG Export Plug-In . SVG Version: 6.00 Build 0)  -->
<svg version="1.1" id="Layer_1" xmlns="http://www.w3.org/2000/svg" xmlns:xlink="http://www.w3.org/1999/xlink" x="0px" y="0px"
	 viewBox="0 0 2500 1500" style="enable-background:new 0 0 2500 1500;" xml:space="preserve">
<style type="text/css">
	.st0{fill:#FFFFFF;}
</style>
<g>
	<path class="st0" d="M1026.91,1056.78h-13.57v25.01l13.69-0.01l2.2-0.14c7.64-1.02,14.01-7.55,14.01-14.79
		C1043.24,1061.3,1035.92,1056.78,1026.91,1056.78z"/>
	<polygon class="st0" points="1178.37,781.1 1590.26,543.29 1514.15,499.35 1178.37,693.22 	"/>
	<polygon class="st0" points="1178.37,628.1 1425.88,485.2 1457.76,466.79 1457.72,466.78 1384.27,424.37 1310.85,466.76 
		1254.45,499.32 1178.37,543.25 1121.99,575.8 916.05,694.7 916.05,779.55 1121.99,660.65 	"/>
	<polygon class="st0" points="1121.99,422.84 916.05,303.94 916.05,629.58 1121.99,510.69 	"/>
	<polygon class="st0" points="1254.45,434.2 1327.89,391.81 1178.37,305.49 1178.37,478.13 1198.06,466.76 	"/>
	<path class="st0" d="M1211.23,1147.36c26.36,0,47.81-21.31,47.81-47.5c0-26.36-21.45-47.81-47.81-47.81
		c-26.26,0-47.61,21.45-47.61,47.81C1163.62,1126.06,1184.97,1147.36,1211.23,1147.36z"/>
	<path class="st0" d="M0,0v1500h2500V0H0z M1822.08,1101.7c0,27.97-10.71,54.06-30.17,73.54c-19.41,19.43-45.34,30.13-73.01,30.13
		h-1.53c-20.57,0-41.78-6.52-58.18-17.89l-10.41-7.22l32.36-56.37l12.64,10.74c6.07,5.16,14.77,8.12,23.88,8.12h0.97
		c22.06,0,40.7-18.89,40.7-41.26l-0.51-102.36h-21.53h-39.04V945.9h123.08v3.83L1822.08,1101.7z M1517.14,1057.33v-53.23h145.29
		v53.23h-46.09v143.37h-53.12v-143.37H1517.14z M859.67,206.28l56.38,32.54l205.94,118.9v-149.9l56.38,32.55l262.29,151.44
		l262.38,151.48l-524.68,302.92l-56.38,32.54V725.76l-205.94,118.9l-56.38,32.55V206.28z M1494.92,1001.14v199.56h-11.96
		l-97.92-93.81v91.07h-53.02V998.61h12.07l97.71,93.6v-91.07H1494.92z M1125.76,1200.7h-65.64l-45.9-65.98h-0.87v65.98h-53.12
		l-0.04-13.18v-183.65h66.11c39.1,0,70.92,30.48,70.92,67.95c0,21.08-10.63,40.68-27.19,52.22L1125.76,1200.7z M1110.39,1100.08
		c0-55.85,45.28-101.27,100.95-101.27c55.71,0,101.04,45.43,101.04,101.27c0,55.47-45.38,100.62-101.15,100.62
		C1155.63,1200.7,1110.39,1155.55,1110.39,1100.08z M811.68,1003.87h121.64v52.92h-68.78l-0.29,24.98h69.06l0.03,52.92h-69.12
		l0.59,66h-53.13V1003.87z M622.31,998.61h12.07l97.71,93.6v-91.07h53.12v199.56h-11.96l-97.92-93.81v91.07h-53.02V998.61z
		 M475.83,1152.14h33.41v-153h-33.41V945.9h123.08v53.23H565.5v153h33.41v53.23h-39.04h-45h-39.04V1152.14z M2017.68,1293.72H475.83
		v-56.26h1541.86V1293.72z M1996.04,1184.61c-16.84,13.38-40.14,20.75-65.59,20.75c-40.59,0-74.21-18.98-89.94-50.77l-5.2-10.51
		l49.77-35.58l7.58,13.26c7.47,13.08,21.4,20.58,38.21,20.58c16.77,0,30.42-6.91,30.42-15.4c0-11.45-28.03-23.53-46.57-31.52
		l-0.7-0.3c-25.49-11.33-63.8-28.35-63.8-73.14c0-43.37,36.95-76.07,85.94-76.07c37.39,0,66.54,18.32,77.98,49.01l3.75,10.06
		l-48.49,33.53l-6.85-14.95c-4.41-9.62-14.42-15.59-26.11-15.59c-13.87,0-23.19,7.68-23.19,14.85c0,5.81,11.34,10.96,30.02,18.74
		c3.08,1.29,6.29,2.62,9.58,4.03c34.57,15.18,71.34,35.14,71.34,80.66C2024.17,1149.47,2014.18,1170.2,1996.04,1184.61z"/>
</g>
</svg>
