<?xml version="1.0" encoding="utf-8"?>
<!-- Generator: Adobe Illustrator 24.0.1, SVG Export Plug-In . SVG Version: 6.00 Build 0)  -->
<svg version="1.1" id="Layer_1" xmlns="http://www.w3.org/2000/svg" xmlns:xlink="http://www.w3.org/1999/xlink" x="0px" y="0px"
	 viewBox="0 0 2500 1500" style="enable-background:new 0 0 2500 1500;" xml:space="preserve">
<style type="text/css">
	.st0{fill:#FFFFFF;}
</style>
<g>
	<path class="st0" d="M1204.17,782.57c31.17,0,56.52-25.19,56.52-56.15c0-31.17-25.35-56.52-56.52-56.52
		c-31.04,0-56.28,25.35-56.28,56.52C1147.89,757.38,1173.13,782.57,1204.17,782.57z"/>
	<path class="st0" d="M989.04,704.88c9.04-1.2,16.56-8.92,16.56-17.48c0-6.56-8.66-11.91-19.3-11.91h-16.04v29.57l16.18-0.01
		L989.04,704.88z"/>
	<path class="st0" d="M0,0v1500h2500V0H0z M1774.58,767.52c7.17,6.1,17.46,9.59,28.23,9.59h1.15c26.08,0,48.11-22.33,48.11-48.77
		l-0.61-121h-25.45h-46.15v-62.93h145.5v4.52l0.9,179.64c0,33.06-12.67,63.91-35.66,86.93c-22.94,22.97-53.59,35.61-86.3,35.61
		h-1.81c-24.32,0-49.39-7.71-68.78-21.14l-12.31-8.53l38.25-66.63L1774.58,767.52z M1565.78,613.21h171.75v62.93h-54.48v169.48
		h-62.79V676.14h-54.48V613.21z M1346.95,606.72h14.27l115.5,110.64V609.72h62.8v235.9h-14.14l-115.75-110.9v107.66h-62.67V606.72z
		 M1204.3,606.96c65.85,0,119.44,53.7,119.44,119.71c0,65.57-53.64,118.94-119.56,118.94c-65.72,0-119.2-53.37-119.2-118.94
		C1084.97,660.66,1138.5,606.96,1204.3,606.96z M907.41,612.95h78.15c46.22,0,83.83,36.03,83.83,80.33
		c0,24.92-12.56,48.08-32.14,61.72l65.88,90.62h-77.6l-54.26-78h-1.02v78h-62.79l-0.05-15.58V612.95z M731.87,612.95h143.79v62.56
		h-81.3l-0.34,29.53h81.63l0.03,62.56h-81.7l0.7,78.02h-62.8V612.95z M508.01,606.72h14.27l115.5,110.64V609.72h62.8v235.9h-14.14
		l-115.75-110.9v107.66h-62.67V606.72z M334.86,788.21h39.49V607.35h-39.49v-62.93h145.49v62.93h-39.49v180.86h39.49v62.93H434.2
		h-53.19h-46.15V788.21z M2157.47,955.58H334.86v-66.51h1822.61V955.58z M2131.89,826.6c-19.91,15.82-47.45,24.53-77.54,24.53
		c-47.98,0-87.72-22.44-106.31-60.02l-6.15-12.43l58.83-42.06l8.95,15.67c8.83,15.46,25.3,24.33,45.17,24.33
		c19.83,0,35.96-8.17,35.96-18.21c0-13.54-33.13-27.81-55.05-37.26l-0.83-0.36c-30.14-13.39-75.42-33.52-75.42-86.46
		c0-51.26,43.67-89.92,101.59-89.92c44.2,0,78.66,21.66,92.18,57.93l4.43,11.89l-57.32,39.63l-8.1-17.67
		c-5.22-11.37-17.04-18.43-30.87-18.43c-16.4,0-27.41,9.07-27.41,17.55c0,6.87,13.41,12.95,35.49,22.15
		c3.65,1.52,7.43,3.1,11.33,4.77c40.87,17.95,84.32,41.54,84.32,95.34C2165.14,785.05,2153.33,809.56,2131.89,826.6z"/>
</g>
</svg>
